<svg width="30" height="24" viewBox="0 0 30 24" fill="none" xmlns="http://www.w3.org/2000/svg">
<path d="M10.5 12C13.8115 12 16.5 9.31149 16.5 6C16.5 2.68851 13.8115 0 10.5 0C7.18851 0 4.5 2.68851 4.5 6C4.5 9.31149 7.18851 12 10.5 12ZM8.35781 14.25C3.74063 14.25 0 17.9906 0 22.6078C0 23.3766 0.623437 24 1.39219 24H19.6078C19.6922 24 19.7719 23.9906 19.8563 23.9766C16.2797 21.3937 15.1781 17.3672 15.0234 14.5922C14.2688 14.3672 13.4719 14.25 12.6469 14.25H8.35781ZM22.8328 10.5797L17.2078 12.8297C16.7812 13.0031 16.5 13.4156 16.5 13.875C16.5 16.8422 17.7141 21.7875 22.8188 23.9156C23.0953 24.0328 23.4094 24.0328 23.6859 23.9156C28.7859 21.7875 30 16.8422 30 13.875C30 13.4156 29.7188 13.0031 29.2922 12.8297L23.6672 10.5797C23.4 10.4719 23.1 10.4719 22.8328 10.5797ZM27.7219 14.625C27.5391 17.0016 26.4469 20.0953 23.25 21.6422V12.8344L27.7219 14.625Z" fill="#2563EB"/>
</svg>
