<svg width="23" height="20" viewBox="0 0 23 20" fill="none" xmlns="http://www.w3.org/2000/svg">
<path d="M16.4277 11.7941C15.9103 11.7941 15.4902 11.3741 15.4902 10.8566C15.4902 10.3392 15.9103 9.91914 16.4277 9.91914C16.9452 9.91914 17.3652 10.3392 17.3652 10.8566C17.3652 11.3741 16.9452 11.7941 16.4277 11.7941ZM6.07227 11.7941C5.55485 11.7941 5.13477 11.3741 5.13477 10.8566C5.13477 10.3392 5.55485 9.91914 6.07227 9.91914C6.58969 9.91914 7.00977 10.3392 7.00977 10.8566C7.00977 11.3741 6.58969 11.7941 6.07227 11.7941ZM16.7637 6.15039L18.6363 2.90821C18.7175 2.7872 18.7246 2.63105 18.6547 2.50318C18.5848 2.37531 18.4495 2.29698 18.3038 2.30001C18.1581 2.30304 18.0262 2.38692 17.9617 2.51758L16.0656 5.80156C13.0022 4.42761 9.49779 4.42761 6.43437 5.80156L4.53828 2.51758C4.47375 2.38692 4.34185 2.30304 4.19616 2.30001C4.05046 2.29698 3.91519 2.37531 3.84529 2.50318C3.77539 2.63105 3.78247 2.7872 3.86367 2.90821L5.73633 6.15039C2.5207 7.89922 0.321875 11.1543 0 15H22.5C22.1781 11.1543 19.9789 7.89922 16.7637 6.15039Z" fill="white"/>
</svg>
