<svg width="36" height="36" viewBox="0 0 36 36" fill="none" xmlns="http://www.w3.org/2000/svg">
<path d="M20.25 2.25C20.25 1.00547 19.2445 0 18 0C16.7555 0 15.75 1.00547 15.75 2.25V19.3148L10.5891 14.1539C9.71016 13.275 8.28281 13.275 7.40391 14.1539C6.525 15.0328 6.525 16.4602 7.40391 17.3391L16.4039 26.3391C17.2828 27.218 18.7102 27.218 19.5891 26.3391L28.5891 17.3391C29.468 16.4602 29.468 15.0328 28.5891 14.1539C27.7102 13.275 26.2828 13.275 25.4039 14.1539L20.25 19.3148V2.25ZM4.5 24.75C2.01797 24.75 0 26.768 0 29.25V31.5C0 33.982 2.01797 36 4.5 36H31.5C33.982 36 36 33.982 36 31.5V29.25C36 26.768 33.982 24.75 31.5 24.75H24.3633L21.1781 27.9352C19.4203 29.693 16.5727 29.693 14.8148 27.9352L11.6367 24.75H4.5ZM30.375 28.6875C31.3064 28.6875 32.0625 29.4436 32.0625 30.375C32.0625 31.3064 31.3064 32.0625 30.375 32.0625C29.4436 32.0625 28.6875 31.3064 28.6875 30.375C28.6875 29.4436 29.4436 28.6875 30.375 28.6875Z" fill="white"/>
</svg>
