<svg width="16" height="14" viewBox="0 0 16 14" fill="none" xmlns="http://www.w3.org/2000/svg">
<path d="M7.87432 0.875C5.66494 0.875 3.8958 1.88125 2.60791 3.07891C1.32822 4.26562 0.472363 5.6875 0.0676758 6.66367C-0.0225586 6.87969 -0.0225586 7.12031 0.0676758 7.33633C0.472363 8.3125 1.32822 9.73438 2.60791 10.9211C3.8958 12.1188 5.66494 13.125 7.87432 13.125C10.0837 13.125 11.8528 12.1188 13.1407 10.9211C14.4204 9.73164 15.2763 8.3125 15.6837 7.33633C15.7739 7.12031 15.7739 6.87969 15.6837 6.66367C15.2763 5.6875 14.4204 4.26562 13.1407 3.07891C11.8528 1.88125 10.0837 0.875 7.87432 0.875ZM3.93682 7C3.93682 5.59327 4.6873 4.29339 5.90557 3.59002C7.12383 2.88666 8.6248 2.88666 9.84307 3.59002C11.0613 4.29339 11.8118 5.59327 11.8118 7C11.8118 9.17317 10.0475 10.9375 7.87432 10.9375C5.70115 10.9375 3.93682 9.17317 3.93682 7ZM7.87432 5.25C7.87432 6.21523 7.08955 7 6.12432 7C5.93018 7 5.74424 6.96719 5.56924 6.90977C5.41885 6.86055 5.24385 6.95352 5.24932 7.11211C5.25752 7.30078 5.28486 7.48945 5.33682 7.67812C5.71143 9.07812 7.15244 9.90937 8.55244 9.53477Cnan nan 10.7837 7.71914 10.4091 6.31914C10.1056 5.18437 9.10205 4.42148 7.98643 4.375C7.82783 4.36953 7.73486 4.5418 7.78408 4.69492C7.8415 4.86992 7.87432 5.05586 7.87432 5.25Z" fill="#005CFF"/>
</svg>
