<svg width="23" height="20" viewBox="0 0 23 20" fill="none" xmlns="http://www.w3.org/2000/svg">
<path d="M0 2.5C0 1.12109 1.12109 0 2.5 0H8.75V5C8.75 5.69141 9.30859 6.25 10 6.25H15V11.1602L11.6094 14.5508C11.207 14.9531 10.9258 15.4531 10.7891 16.0039L10.0586 18.9297C9.96875 19.2891 9.98828 19.6641 10.1094 20.0039H2.5C1.12109 20.0039 0 18.8828 0 17.5039V2.5ZM15 5H10V0L15 5ZM21.4766 9.20703L22.0391 9.76953C22.6484 10.3789 22.6484 11.3672 22.0391 11.9805L20.8906 13.1289L18.1172 10.3555L19.2656 9.20703C19.875 8.59766 20.8633 8.59766 21.4766 9.20703ZM12.1836 16.2891L17.2305 11.2422L20.0039 14.0156L14.957 19.0586C14.7969 19.2188 14.5977 19.332 14.375 19.3867L12.0273 19.9727C11.8125 20.0273 11.5898 19.9648 11.4336 19.8086Cnan nan 11.2148 19.4297 11.2695 19.2148L11.8555 16.8672C11.9102 16.6484 12.0234 16.4453 12.1836 16.2852V16.2891Z" fill="#2563EB"/>
</svg>
