<svg width="18" height="18" viewBox="0 0 18 18" fill="none" xmlns="http://www.w3.org/2000/svg">
<path d="M5.5077 13.5308L4.42137 12.4445C4.12254 12.1456 4.01708 11.7132 4.15067 11.3124C4.25614 10.9995 4.39676 10.5917 4.56551 10.1241H0.845981C0.543638 10.1241 0.262388 9.96242 0.111216 9.69875C-0.0399561 9.43508 -0.0364405 9.11164 0.118247 8.85149L1.96395 5.74016C2.42098 4.97023 3.24715 4.49914 4.14012 4.49914H7.03348C7.11786 4.35852 7.20223 4.22844 7.28661 4.10188C10.1659 -0.144999 14.455 -0.285624 17.0143 0.185469C17.4222 0.259297 17.7386 0.579219 17.8159 0.987032C18.287 3.54992 18.1429 7.83547 13.8995 10.7148C13.7765 10.7991 13.6429 10.8835 13.5022 10.9679V13.8613C13.5022 14.7542 13.0311 15.5839 12.2612 16.0374L9.14989 17.8831C8.88973 18.0378 8.56629 18.0413 8.30262 17.8902C8.03895 17.739 7.87723 17.4613 7.87723 17.1554V13.3866C7.38153 13.5589 6.94911 13.6995 6.62215 13.805C6.2284 13.9316 5.7995 13.8226 5.50418 13.5308H5.5077ZM13.5022 5.90539C14.2784 5.90539 14.9085 5.27527 14.9085 4.49914C14.9085 3.72301 14.2784 3.09289 13.5022 3.09289C12.7261 3.09289 12.096 3.72301 12.096 4.49914C12.096 5.27527 12.7261 5.90539 13.5022 5.90539Z" fill="#2563EB"/>
</svg>
