<svg width="25" height="24" viewBox="0 0 25 24" fill="none" xmlns="http://www.w3.org/2000/svg">
<path d="M0 17.125C0 20.2305 2.51953 22.75 5.625 22.75H20C22.7617 22.75 25 20.5117 25 17.75C25 15.332 23.2812 13.3125 21 12.8516C21.1602 12.4336 21.25 11.9766 21.25 11.5C21.25 9.42969 19.5703 7.75 17.5 7.75C16.7305 7.75 16.0117 7.98438 15.418 8.38281C14.3359 6.50781 12.3164 5.25 10 5.25C6.54688 5.25 3.75 8.04688 3.75 11.5C3.75 11.6055 3.75391 11.7109 3.75781 11.8164C1.57031 12.5859 0 14.6719 0 17.125Z" fill="#005CFF"/>
</svg>
