<svg width="20" height="24" viewBox="0 0 20 24" fill="none" xmlns="http://www.w3.org/2000/svg">
<path d="M10 4C10.1797 4 10.3594 4.03906 10.5235 4.11328L17.8789 7.23438C18.7383 7.59766 19.3789 8.44531 19.375 9.46875C19.3555 13.3438 17.7617 20.4336 11.0313 23.6562C10.3789 23.9688 9.62111 23.9688 8.96877 23.6562C2.2383 20.4336 0.644549 13.3438 0.625018 9.46875C0.621112 8.44531 1.26174 7.59766 2.12111 7.23438L9.48049 4.11328C9.64064 4.03906 9.82033 4 10 4ZM10 6.60938V21.375C15.3906 18.7656 16.8399 12.9883 16.875 9.52344L10 6.60938Z" fill="#005CFF"/>
</svg>
