<svg width="18" height="11" viewBox="0 0 18 11" fill="none" xmlns="http://www.w3.org/2000/svg">
<path d="M8.84297 0.579687L6.19609 2.72344C5.75586 3.07891 5.67109 3.71875 6.00469 4.17539C6.35742 4.66211 7.04375 4.75781 7.5168 4.38867L10.232 2.27773C10.4234 2.13008 10.6969 2.16289 10.8473 2.3543C10.9977 2.5457 10.9621 2.81914 10.7707 2.96953L10.1992 3.4125L14 6.9125V1.75H13.9809L13.8742 1.68164L11.8891 0.410156C11.4707 0.142188 10.9812 0 10.4836 0C9.8875 0 9.30781 0.205078 8.84297 0.579687ZM9.46641 3.98125L8.05273 5.08047C7.19141 5.75312 5.9418 5.57812 5.29648 4.69219C4.68945 3.8582 4.84258 2.69336 5.64375 2.04531L7.91875 0.205078C7.60156 0.0710938 7.25977 0.00273437 6.9125 0.00273437C6.39844 0 5.89805 0.153125 5.46875 0.4375L3.5 1.75V7.875H4.27109L6.77031 10.1555C7.30625 10.6449 8.13477 10.6066 8.62422 10.0707C8.77461 9.90391 8.87578 9.70977 8.92773 9.50742L9.39258 9.93398C9.92578 10.4234 10.757 10.3879 11.2465 9.85469C11.3695 9.7207 11.4598 9.56484 11.5172 9.40352C12.0477 9.75898 12.7695 9.68516 13.2152 9.19844C13.7047 8.66523 13.6691 7.83398 13.1359 7.34453L9.46641 3.98125ZM0.4375 1.75C0.196875 1.75 0 1.94687 0 2.1875V7.875C0 8.35898 0.391016 8.75 0.875 8.75H1.75C2.23398 8.75 2.625 8.35898 2.625 7.875V1.75H0.4375ZM1.3125 7C1.55396 7 1.75 7.19604 1.75 7.4375C1.75 7.67896 1.55396 7.875 1.3125 7.875C1.07104 7.875 0.875 7.67896 0.875 7.4375C0.875 7.19604 1.07104 7 1.3125 7ZM14.875 1.75V7.875C14.875 8.35898 15.266 8.75 15.75 8.75H16.625C17.109 8.75 17.5 8.35898 17.5 7.875V2.1875C17.5 1.94687 17.3031 1.75 17.0625 1.75H14.875ZM15.75 7.4375C15.75 7.19604 15.946 7 16.1875 7C16.429 7 16.625 7.19604 16.625 7.4375C16.625 7.67896 16.429 7.875 16.1875 7.875C15.946 7.875 15.75 7.67896 15.75 7.4375Z" fill="#005CFF"/>
</svg>
