<svg width="18" height="14" viewBox="0 0 18 14" fill="none" xmlns="http://www.w3.org/2000/svg">
<path d="M10.5009 0.875H14.0009C14.4848 0.875 14.8759 1.26602 14.8759 1.75C14.8759 2.23398 14.4848 2.625 14.0009 2.625H10.8946C10.7524 3.33047 10.2684 3.91289 9.62586 4.1918V12.25H14.0009C14.4848 12.25 14.8759 12.641 14.8759 13.125C14.8759 13.609 14.4848 14 14.0009 14H8.75086H3.50086C3.01688 14 2.62586 13.609 2.62586 13.125C2.62586 12.641 3.01688 12.25 3.50086 12.25H7.87586V4.1918C7.23328 3.91016 6.7493 3.32773 6.60711 2.625H3.50086C3.01688 2.625 2.62586 2.23398 2.62586 1.75C2.62586 1.26602 3.01688 0.875 3.50086 0.875H7.00086C7.40008 0.344531 8.03446 0 8.75086 0C9.46727 0 10.1016 0.344531 10.5009 0.875ZM12.0212 8.75H15.9805L14.0009 5.35391L12.0212 8.75ZM14.0009 11.375C12.2809 11.375 10.8509 10.4453 10.5556 9.21758C10.4845 8.9168 10.5829 8.60781 10.7388 8.33984L13.3419 3.87734C13.4786 3.64219 13.7302 3.5 14.0009 3.5Cnan nan 14.5231 3.64492 14.6598 3.87734L17.263 8.33984C17.4188 8.60781 17.5173 8.9168 17.4462 9.21758C17.1509 10.4453 15.7208 11.375 14.0009 11.375ZM3.46805 5.35391L1.48836 8.75H5.45047L3.46805 5.35391ZM0.025472 9.21758C-0.0456217 8.9168 0.0528158 8.60781 0.208675 8.33984L2.8118 3.87734C2.94852 3.64219 3.20008 3.5 3.47078 3.5Cnan nan 3.99305 3.64492 4.12977 3.87734L6.73289 8.33984C6.88875 8.60781 6.98719 8.9168 6.9161 9.21758C6.61805 10.4453 5.18797 11.375 3.46805 11.375C1.74813 11.375 0.320785 10.4453 0.025472 9.21758Z" fill="#005CFF"/>
</svg>
