<svg width="16" height="13" viewBox="0 0 16 13" fill="none" xmlns="http://www.w3.org/2000/svg">
<path d="M1.75 0C0.784766 0 0 0.784766 0 1.75V2.625H15.75V1.75C15.75 0.784766 14.9652 0 14 0H1.75ZM15.75 5.25H0V10.5C0 11.4652 0.784766 12.25 1.75 12.25H14C14.9652 12.25 15.75 11.4652 15.75 10.5V5.25ZM3.0625 8.75H4.8125C5.05312 8.75 5.25 8.94687 5.25 9.1875Cnan nan 5.05312 9.625 4.8125 9.625H3.0625C2.82188 9.625 2.625 9.42813 2.625 9.1875Cnan nan 2.82188 8.75 3.0625 8.75ZM6.125 9.1875C6.125 8.94687 6.32188 8.75 6.5625 8.75H10.0625C10.3031 8.75 10.5 8.94687 10.5 9.1875Cnan nan 10.3031 9.625 10.0625 9.625H6.5625C6.32188 9.625 6.125 9.42813 6.125 9.1875Z" fill="#005CFF"/>
</svg>
