<svg width="16" height="14" viewBox="0 0 16 14" fill="none" xmlns="http://www.w3.org/2000/svg">
<path d="M1.75 0C0.784766 0 0 0.784766 0 1.75V9.625C0 10.5902 0.784766 11.375 1.75 11.375H6.5625L6.26992 12.25H4.375C3.89102 12.25 3.5 12.641 3.5 13.125C3.5 13.609 3.89102 14 4.375 14H11.375C11.859 14 12.25 13.609 12.25 13.125C12.25 12.641 11.859 12.25 11.375 12.25H9.48008L9.1875 11.375H14C14.9652 11.375 15.75 10.5902 15.75 9.625V1.75C15.75 0.784766 14.9652 0 14 0H1.75ZM14 1.75V7.875H1.75V1.75H14Z" fill="#005CFF"/>
</svg>
