<svg width="13" height="12" viewBox="0 0 13 12" fill="none" xmlns="http://www.w3.org/2000/svg">
<path d="M2.99961 3.50068H4.375C4.85898 3.50068 5.25 3.8917 5.25 4.37568C5.25 4.85967 4.85898 5.25068 4.375 5.25068H0.875C0.391016 5.25068 0 4.85967 0 4.37568V0.875684C0 0.391699 0.391016 0.000683594 0.875 0.000683594C1.35898 0.000683594 1.75 0.391699 1.75 0.875684V2.27568L2.23125 1.79443C4.62383 -0.598145 8.50117 -0.598145 10.8938 1.79443C13.2863 4.18701 13.2863 8.06436 10.8938 10.4569C10.8938 10.4569 4.62383 12.8495 2.23125 10.4569C1.88945 10.1151 1.88945 9.56006 2.23125 9.21826C2.57305 8.87646 3.12812 8.87646 3.46992 9.21826C5.17891 10.9272 7.94883 10.9272 9.65781 9.21826C11.3668 7.50928 11.3668 4.73936 9.65781 3.03037C9.65781 3.03037 5.17891 1.32139 3.46992 3.03037L2.99961 3.50068Z" fill="#005CFF"/>
</svg>
