<svg width="21" height="24" viewBox="0 0 21 24" fill="none" xmlns="http://www.w3.org/2000/svg">
<path d="M10.2818 0.0234131C10.4271 -0.00471191 10.5771 -0.00471191 10.7224 0.0234131L20.0974 1.89841C20.6224 2.00154 21.0021 2.4656 21.0021 2.99998C21.0021 3.53435 20.6224 3.99841 20.0974 4.10154L16.5021 4.82341V7.49998C16.5021 10.814 13.8161 13.5 10.5021 13.5C7.18802 13.5 4.50209 10.814 4.50209 7.49998V4.82341L2.25209 4.37341V7.42498L2.98802 11.1C3.03021 11.3203 2.97396 11.55 2.83334 11.7234C2.69271 11.8969 2.47709 12 2.25209 12H0.752087C0.527087 12 0.316149 11.9015 0.170837 11.7234C0.0255242 11.5453 -0.0307258 11.3203 0.0161492 11.1L0.752087 7.42498V4.05935C0.306774 3.90466 0.00208666 3.48279 0.00208666 2.99998C0.00208666 2.4656 0.381774 2.00154 0.906774 1.89841L10.2818 0.0234131ZM5.2474 15.3609C5.73959 15.2015 6.26927 15.3797 6.62552 15.7594L9.95365 19.2984C10.249 19.6125 10.7505 19.6125 11.0458 19.2984L14.374 15.7594C14.7302 15.3797 15.2599 15.2015 15.7521 15.3609C18.799 16.3406 21.0021 19.1906 21.0021 22.5609C21.0021 23.3578 20.3552 24 19.563 24H1.44115C0.648962 24 0.00208666 23.3531 0.00208666 22.5609C0.00208666 19.1906 2.20521 16.3406 5.2474 15.3609Z" fill="#2563EB"/>
</svg>
