<svg width="30" height="24" viewBox="0 0 30 24" fill="none" xmlns="http://www.w3.org/2000/svg">
<path d="M7.5 3C7.5 1.34531 8.84531 0 10.5 0H27C28.6547 0 30 1.34531 30 3V16.5C30 18.1547 28.6547 19.5 27 19.5H15.7875C15.2344 18.3047 14.3859 17.2734 13.3313 16.5H18V15C18 14.1703 18.6703 13.5 19.5 13.5H22.5C23.3297 13.5 24 14.1703 24 15V16.5H27V3H10.5V5.30156C9.61875 4.79062 8.59219 4.5 7.5 4.5V3ZM7.5 6C9.98362 6 12 8.01638 12 10.5C12 12.9836 9.98362 15 7.5 15C5.01638 15 3 12.9836 3 10.5C3 8.01638 5.01638 6 7.5 6ZM6.24844 16.5H8.74687C12.2016 16.5 15 19.2984 15 22.7484C15 23.4375 14.4422 24 13.7484 24H1.25156C0.557812 24 0 23.4422 0 22.7484C0 19.2984 2.79844 16.5 6.24844 16.5Z" fill="#2563EB"/>
</svg>
