<svg width="14" height="14" viewBox="0 0 14 14" fill="none" xmlns="http://www.w3.org/2000/svg">
<path d="M10.0406 11.2793L2.7207 3.95937C2.1082 4.81523 1.75 5.86523 1.75 7C1.75 9.89844 4.10156 12.25 7 12.25C8.13477 12.25 9.18476 11.8918 10.0406 11.2793ZM11.2793 10.0406C11.8918 9.18476 12.25 8.13477 12.25 7C12.25 4.10156 9.89844 1.75 7 1.75C5.86523 1.75 4.81523 2.1082 3.95937 2.7207L11.2793 10.0406ZM0 7C0 3.13659 3.13659 0 7 0C10.8634 0 14 3.13659 14 7C14 10.8634 10.8634 14 7 14C3.13659 14 0 10.8634 0 7Z" fill="#005CFF"/>
</svg>
