<svg width="18" height="14" viewBox="0 0 18 14" fill="none" xmlns="http://www.w3.org/2000/svg">
<path d="M2.625 3.5C2.625 1.5683 4.1933 0 6.125 0C8.0567 0 9.625 1.5683 9.625 3.5C9.625 5.4317 8.0567 7 6.125 7C4.1933 7 2.625 5.4317 2.625 3.5ZM0 13.1879C0 10.4945 2.18203 8.3125 4.87539 8.3125H7.37461C10.068 8.3125 12.25 10.4945 12.25 13.1879C12.25 13.6363 11.8863 14 11.4379 14H0.812109C0.363672 14 0 13.6363 0 13.1879ZM17.0898 4.83984L13.5898 8.33984C13.3328 8.59688 12.9172 8.59688 12.6629 8.33984L10.9129 6.58984C10.6559 6.33281 10.6559 5.91719 10.9129 5.66289Cnan nan 11.5855 5.40586 11.8398 5.66289L13.125 6.94805L16.1602 3.91016C16.4172 3.65313 16.8328 3.65313 17.0871 3.91016Cnan nan 17.3441 4.58281 17.0871 4.83711L17.0898 4.83984Z" fill="#005CFF"/>
</svg>
